Coordinates
version=1
nRows=9
nColumns=24
inDegrees=yes

Units are S.I. units (second, meters, Newtons, ...)
Angles are in degrees.

endheader
time	pelvis_tilt	pelvis_list	pelvis_rotation	pelvis_tx	pelvis_ty	pelvis_tz	hip_flexion_r	hip_adduction_r	hip_rotation_r	knee_angle_r	ankle_angle_r	subtalar_angle_r	mtp_angle_r	hip_flexion_l	hip_adduction_l	hip_rotation_l	knee_angle_l	ankle_angle_l	subtalar_angle_l	mtp_angle_l	lumbar_extension	lumbar_bending	lumbar_rotation
      1.32100000	     -1.54012640	      7.50825682	     -0.28205772	      0.35191786	      0.99482903	      0.28185550	     21.22843205	     -8.42119727	      1.02160470	    -70.39815865	     -3.53161404	     -9.33156109	      5.66895355	      9.55460852	     12.68539714	     -0.38887718	     -8.57428475	      1.03270346	     -8.33564115	      1.54574354	     -0.20453603	     -5.58381290	      2.31983230
      1.32516667	     -1.45029751	      7.43476996	     -0.19054593	      0.35687764	      0.99557142	      0.28166443	     21.67792520	     -8.31232247	      1.06944682	    -70.11477624	     -2.76245417	     -9.72174736	      5.48255415	      8.95775925	     12.64474769	     -0.13046253	     -8.26761003	      1.09479260	     -8.42078239	      1.51695263	     -0.33452810	     -5.52037196	      2.13276185
      1.32933333	     -1.39509673	      7.35081621	     -0.08771165	      0.36178877	      0.99620094	      0.28145365	     22.15902507	     -8.19941549	      1.10377977	    -69.79277596	     -1.97950251	    -10.01701735	      5.29513207	      8.42312892	     12.59083238	      0.11777485	     -8.00558652	      1.16886675	     -8.47702038	      1.48464815	     -0.43785167	     -5.43139600	      2.00896580
      1.33350000	     -1.36750572	      7.26438823	      0.05451642	      0.36668234	      0.99678972	      0.28116356	     22.64629462	     -8.10798671	      1.09080023	    -69.41453775	     -1.17697769	    -10.15524827	      3.48933969	      7.89442652	     12.54894312	      0.52622452	     -7.69932636	      1.14305816	     -8.74767969	      1.13687301	     -0.50666335	     -5.33531839	      1.82778021
      1.33766667	     -1.29545878	      7.15155047	      0.13776996	      0.37158293	      0.99739039	      0.28102475	     23.07589287	     -7.95103117	      1.13117641	    -68.96996923	     -0.48456928	    -10.51870138	      3.40746360	      7.37246560	     12.44757596	      0.66634464	     -7.49132192	      1.29358654	     -8.65345968	      1.12230937	     -0.63595469	     -5.20580854	      1.76200214
      1.34183333	     -1.25522105	      7.02386213	      0.25808369	      0.37646316	      0.99793753	      0.28083860	     23.51316341	     -7.79669104	      1.12845180	    -68.46223760	      0.20883687	    -10.74880240	      3.36246813	      6.88610166	     12.33627752	      0.89049422	     -7.28880247	      1.39123015	     -8.64577579	      1.11241626	     -0.72374731	     -5.06894011	      1.69025068
      1.34600000	     -1.17978668	      6.92436133	      0.37370860	      0.38136391	      0.99848341	      0.28062155	     23.90134611	     -7.68645516	      1.11742422	    -67.91229915	      0.82275884	    -11.06934993	      3.16440138	      6.31592367	     12.26451725	      1.23208285	     -6.99063490	      1.39740292	     -8.85888421	      1.05840865	     -0.84991977	     -4.95482470	      1.46826893
      1.35016667	     -1.14107584	      6.83299796	      0.48813041	      0.38622295	      0.99892025	      0.28041979	     24.32595870	     -7.58352153	      1.11620244	    -67.32856460	      1.45616488	    -11.28810294	      2.92318277	      5.81438630	     12.19598119	      1.53787897	     -6.74433188	      1.44899283	     -9.01659488	      0.98642269	     -0.94783622	     -4.85174094	      1.33161221
      1.35433333	     -1.11965324	      6.72307807	      0.60640888	      0.39108183	      0.99929666	      0.28024423	     24.74680545	     -7.45959433	      1.10609501	    -66.68523782	      2.08402754	    -11.46272889	      2.86326062	      5.36762675	     12.09800432	      1.75176822	     -6.57082052	      1.58502510	     -9.03811051	      0.96848038	     -1.00505025	     -4.74336356	      1.27805880
